<?xml version="1.0" encoding="UTF-8"?>
<mxfile host="Electron" agent="Mozilla/5.0 (Windows NT 10.0; Win64; x64)" type="device" etag="Enhanced-Diagrams" version="25.0.8">
  <diagram id="page1" name="Detailed DFD (Levels 0-2)">
    <mxGraphModel dx="1422" dy="794" grid="1" gridSize="10" guides="1" tooltips="1" connect="1" arrows="1" fold="1" page="1" pageScale="1" pageWidth="1600" pageHeight="1200" math="0" shadow="0">
      <root>
        <mxCell id="0"/>
        <mxCell id="1" parent="0"/>
        <mxCell id="id_1" value="0\n\nСистема\nінтернет-магазину\n&quot;ТехноСвіт&quot;" style="ellipse;whiteSpace=wrap;html=1;fillColor=#f8cecc;strokeColor=#b85450;fontSize=14;fontStyle=1;strokeWidth=3;" vertex="1" parent="1">
          <mxGeometry x="600" y="300" width="220" height="220" as="geometry"/>
        </mxCell>
        <mxCell id="id_2" value="КЛІЄНТ" style="rounded=0;whiteSpace=wrap;html=1;fillColor=#dae8fc;strokeColor=#6c8ebf;fontSize=12;fontStyle=1;strokeWidth=4;align=center;" vertex="1" parent="1">
          <mxGeometry x="100" y="50" width="150" height="80" as="geometry"/>
        </mxCell>
        <mxCell id="id_3" value="АДМІНІСТРАТОР" style="rounded=0;whiteSpace=wrap;html=1;fillColor=#dae8fc;strokeColor=#6c8ebf;fontSize=12;fontStyle=1;strokeWidth=4;align=center;" vertex="1" parent="1">
          <mxGeometry x="100" y="200" width="150" height="80" as="geometry"/>
        </mxCell>
        <mxCell id="id_4" value="МЕНЕДЖЕР" style="rounded=0;whiteSpace=wrap;html=1;fillColor=#dae8fc;strokeColor=#6c8ebf;fontSize=12;fontStyle=1;strokeWidth=4;align=center;" vertex="1" parent="1">
          <mxGeometry x="100" y="350" width="150" height="80" as="geometry"/>
        </mxCell>
        <mxCell id="id_5" value="ПОСТАЧАЛЬНИК" style="rounded=0;whiteSpace=wrap;html=1;fillColor=#dae8fc;strokeColor=#6c8ebf;fontSize=12;fontStyle=1;strokeWidth=4;align=center;" vertex="1" parent="1">
          <mxGeometry x="100" y="500" width="150" height="80" as="geometry"/>
        </mxCell>
        <mxCell id="id_6" value="ПЛАТІЖНА\nСИСТЕМА" style="rounded=0;whiteSpace=wrap;html=1;fillColor=#dae8fc;strokeColor=#6c8ebf;fontSize=12;fontStyle=1;strokeWidth=4;align=center;" vertex="1" parent="1">
          <mxGeometry x="1200" y="50" width="150" height="80" as="geometry"/>
        </mxCell>
        <mxCell id="id_7" value="СЛУЖБА\nДОСТАВКИ" style="rounded=0;whiteSpace=wrap;html=1;fillColor=#dae8fc;strokeColor=#6c8ebf;fontSize=12;fontStyle=1;strokeWidth=4;align=center;" vertex="1" parent="1">
          <mxGeometry x="1200" y="200" width="150" height="80" as="geometry"/>
        </mxCell>
        <mxCell id="id_8" value="EMAIL\nСЕРВІС" style="rounded=0;whiteSpace=wrap;html=1;fillColor=#dae8fc;strokeColor=#6c8ebf;fontSize=12;fontStyle=1;strokeWidth=4;align=center;" vertex="1" parent="1">
          <mxGeometry x="1200" y="350" width="150" height="80" as="geometry"/>
        </mxCell>
        <mxCell id="id_9" value="БАНКІВСЬКА\nСИСТЕМА" style="rounded=0;whiteSpace=wrap;html=1;fillColor=#dae8fc;strokeColor=#6c8ebf;fontSize=12;fontStyle=1;strokeWidth=4;align=center;" vertex="1" parent="1">
          <mxGeometry x="1200" y="500" width="150" height="80" as="geometry"/>
        </mxCell>
        <mxCell id="id_10" value="СИСТЕМА\nАНАЛІТИКИ" style="rounded=0;whiteSpace=wrap;html=1;fillColor=#dae8fc;strokeColor=#6c8ebf;fontSize=12;fontStyle=1;strokeWidth=4;align=center;" vertex="1" parent="1">
          <mxGeometry x="500" y="50" width="150" height="80" as="geometry"/>
        </mxCell>
        <mxCell id="id_11" value="CRM\nСИСТЕМА" style="rounded=0;whiteSpace=wrap;html=1;fillColor=#dae8fc;strokeColor=#6c8ebf;fontSize=12;fontStyle=1;strokeWidth=4;align=center;" vertex="1" parent="1">
          <mxGeometry x="800" y="50" width="150" height="80" as="geometry"/>
        </mxCell>
        <mxCell id="id_12" value="Запити каталогу\nДані реєстрації\nЗамовлення\nПлатіжні дані" style="endArrow=classic;html=1;rounded=0;fontSize=10;labelBackgroundColor=#ffffff;strokeWidth=2;strokeColor=#82b366;" edge="1" parent="1" source="id_2" target="id_1">
          <mxGeometry relative="1" as="geometry"/>
        </mxCell>
        <mxCell id="id_13" value="Каталог товарів\nСтатус замовлення\nЧеки\nПовідомлення" style="endArrow=classic;html=1;rounded=0;fontSize=10;labelBackgroundColor=#ffffff;strokeWidth=2;strokeColor=#b85450;" edge="1" parent="1" source="id_1" target="id_2">
          <mxGeometry relative="1" as="geometry"/>
        </mxCell>
        <mxCell id="id_14" value="Дані товарів\nОновлення цін\nНалаштування система\nПоліси безпеки" style="endArrow=classic;html=1;rounded=0;fontSize=10;labelBackgroundColor=#ffffff;strokeWidth=2;strokeColor=#d79b00;strokeWidth=3;" edge="1" parent="1" source="id_3" target="id_1">
          <mxGeometry relative="1" as="geometry"/>
        </mxCell>
        <mxCell id="id_15" value="Звіти продажів\nСтатистика використання\nЛоги безпеки\nІнвентарні звіти" style="endArrow=classic;html=1;rounded=0;fontSize=10;labelBackgroundColor=#ffffff;strokeWidth=2;strokeColor=#b85450;" edge="1" parent="1" source="id_1" target="id_3">
          <mxGeometry relative="1" as="geometry"/>
        </mxCell>
        <mxCell id="id_16" value="Промо-акції\nЗнижки\nКампанії\nКонтент" style="endArrow=classic;html=1;rounded=0;fontSize=10;labelBackgroundColor=#ffffff;strokeWidth=2;strokeColor=#82b366;" edge="1" parent="1" source="id_4" target="id_1">
          <mxGeometry relative="1" as="geometry"/>
        </mxCell>
        <mxCell id="id_17" value="Аналітика продажів\nПоведінка клієнтів\nROI кампаній" style="endArrow=classic;html=1;rounded=0;fontSize=10;labelBackgroundColor=#ffffff;strokeWidth=2;strokeColor=#b85450;" edge="1" parent="1" source="id_1" target="id_4">
          <mxGeometry relative="1" as="geometry"/>
        </mxCell>
        <mxCell id="id_18" value="Прайс-листи\nТехнічні характеристики\nСтатус доступності\nЗображення товарів" style="endArrow=classic;html=1;rounded=0;fontSize=10;labelBackgroundColor=#ffffff;strokeWidth=2;strokeColor=#82b366;" edge="1" parent="1" source="id_5" target="id_1">
          <mxGeometry relative="1" as="geometry"/>
        </mxCell>
        <mxCell id="id_19" value="Замовлення поповнення\nПрогнози попиту\nЗвіти продажів\nРекламації" style="endArrow=classic;html=1;rounded=0;fontSize=10;labelBackgroundColor=#ffffff;strokeWidth=2;strokeColor=#b85450;" edge="1" parent="1" source="id_1" target="id_5">
          <mxGeometry relative="1" as="geometry"/>
        </mxCell>
        <mxCell id="id_20" value="Запит авторизації\nДані платіжної картки\nСума до списання\nТип валюти" style="endArrow=classic;html=1;rounded=0;fontSize=10;labelBackgroundColor=#ffffff;strokeWidth=2;strokeColor=#6c8ebf;dashed=1;" edge="1" parent="1" source="id_1" target="id_6">
          <mxGeometry relative="1" as="geometry"/>
        </mxCell>
        <mxCell id="id_21" value="Код авторизації\nСтатус транзакції\nІдентифікатор платежу\nПовідомлення про помилки" style="endArrow=classic;html=1;rounded=0;fontSize=10;labelBackgroundColor=#ffffff;strokeWidth=2;strokeColor=#9673a6;dashed=1;" edge="1" parent="1" source="id_6" target="id_1">
          <mxGeometry relative="1" as="geometry"/>
        </mxCell>
        <mxCell id="id_22" value="1\n\nУправління\nкористувачами\nта профілями" style="ellipse;whiteSpace=wrap;html=1;fillColor=#d5e8d4;strokeColor=#666666;fontSize=11;fontStyle=1;strokeWidth=2;" vertex="1" parent="1">
          <mxGeometry x="200" y="700" width="150" height="150" as="geometry"/>
        </mxCell>
        <mxCell id="id_23" value="2\n\nУправління\nкаталогом\nта інвентарем" style="ellipse;whiteSpace=wrap;html=1;fillColor=#fff2cc;strokeColor=#666666;fontSize=11;fontStyle=1;strokeWidth=2;" vertex="1" parent="1">
          <mxGeometry x="400" y="700" width="150" height="150" as="geometry"/>
        </mxCell>
        <mxCell id="id_24" value="3\n\nОбробка\nзамовлень\nта резервування" style="ellipse;whiteSpace=wrap;html=1;fillColor=#ffe6cc;strokeColor=#666666;fontSize=11;fontStyle=1;strokeWidth=2;" vertex="1" parent="1">
          <mxGeometry x="600" y="700" width="150" height="150" as="geometry"/>
        </mxCell>
        <mxCell id="id_25" value="4\n\nПлатіжна\nобробка\nта біллінг" style="ellipse;whiteSpace=wrap;html=1;fillColor=#e1d5e7;strokeColor=#666666;fontSize=11;fontStyle=1;strokeWidth=2;" vertex="1" parent="1">
          <mxGeometry x="800" y="700" width="150" height="150" as="geometry"/>
        </mxCell>
        <mxCell id="id_26" value="5\n\nЛогістика\nта управління\nдоставкою" style="ellipse;whiteSpace=wrap;html=1;fillColor=#f8cecc;strokeColor=#666666;fontSize=11;fontStyle=1;strokeWidth=2;" vertex="1" parent="1">
          <mxGeometry x="1000" y="700" width="150" height="150" as="geometry"/>
        </mxCell>
        <mxCell id="id_27" value="6\n\nАналітика\nта звітність" style="ellipse;whiteSpace=wrap;html=1;fillColor=#dae8fc;strokeColor=#666666;fontSize=11;fontStyle=1;strokeWidth=2;" vertex="1" parent="1">
          <mxGeometry x="1200" y="700" width="150" height="150" as="geometry"/>
        </mxCell>
        <mxCell id="id_28" value="D1 | База користувачів" style="shape=partialRectangle;whiteSpace=wrap;html=1;left=0;right=0;fillColor=#f5f5f5;strokeColor=#666666;fontSize=11;fontStyle=1;align=left;spacingLeft=10;" vertex="1" parent="1">
          <mxGeometry x="150" y="950" width="200" height="45" as="geometry"/>
        </mxCell>
        <mxCell id="id_29" value="D2 | Каталог товарів" style="shape=partialRectangle;whiteSpace=wrap;html=1;left=0;right=0;fillColor=#f5f5f5;strokeColor=#666666;fontSize=11;fontStyle=1;align=left;spacingLeft=10;" vertex="1" parent="1">
          <mxGeometry x="370" y="950" width="200" height="45" as="geometry"/>
        </mxCell>
        <mxCell id="id_30" value="D3 | Замовлення та історія" style="shape=partialRectangle;whiteSpace=wrap;html=1;left=0;right=0;fillColor=#f5f5f5;strokeColor=#666666;fontSize=11;fontStyle=1;align=left;spacingLeft=10;" vertex="1" parent="1">
          <mxGeometry x="590" y="950" width="200" height="45" as="geometry"/>
        </mxCell>
        <mxCell id="id_31" value="D4 | Платіжні транзакції" style="shape=partialRectangle;whiteSpace=wrap;html=1;left=0;right=0;fillColor=#f5f5f5;strokeColor=#666666;fontSize=11;fontStyle=1;align=left;spacingLeft=10;" vertex="1" parent="1">
          <mxGeometry x="810" y="950" width="200" height="45" as="geometry"/>
        </mxCell>
        <mxCell id="id_32" value="D5 | Логістичні дані" style="shape=partialRectangle;whiteSpace=wrap;html=1;left=0;right=0;fillColor=#f5f5f5;strokeColor=#666666;fontSize=11;fontStyle=1;align=left;spacingLeft=10;" vertex="1" parent="1">
          <mxGeometry x="1030" y="950" width="200" height="45" as="geometry"/>
        </mxCell>
        <mxCell id="id_33" value="D6 | Категорії та теги" style="shape=partialRectangle;whiteSpace=wrap;html=1;left=0;right=0;fillColor=#f5f5f5;strokeColor=#666666;fontSize=11;fontStyle=1;align=left;spacingLeft=10;" vertex="1" parent="1">
          <mxGeometry x="150" y="1050" width="200" height="45" as="geometry"/>
        </mxCell>
        <mxCell id="id_34" value="D7 | Кошики користувачів" style="shape=partialRectangle;whiteSpace=wrap;html=1;left=0;right=0;fillColor=#f5f5f5;strokeColor=#666666;fontSize=11;fontStyle=1;align=left;spacingLeft=10;" vertex="1" parent="1">
          <mxGeometry x="370" y="1050" width="200" height="45" as="geometry"/>
        </mxCell>
        <mxCell id="id_35" value="D8 | Логи системи" style="shape=partialRectangle;whiteSpace=wrap;html=1;left=0;right=0;fillColor=#f5f5f5;strokeColor=#666666;fontSize=11;fontStyle=1;align=left;spacingLeft=10;" vertex="1" parent="1">
          <mxGeometry x="590" y="1050" width="200" height="45" as="geometry"/>
        </mxCell>
        <mxCell id="id_36" value="D9 | Аналітичні дані" style="shape=partialRectangle;whiteSpace=wrap;html=1;left=0;right=0;fillColor=#f5f5f5;strokeColor=#666666;fontSize=11;fontStyle=1;align=left;spacingLeft=10;" vertex="1" parent="1">
          <mxGeometry x="810" y="1050" width="200" height="45" as="geometry"/>
        </mxCell>
        <mxCell id="id_37" value="D10 | Конфігурація системи" style="shape=partialRectangle;whiteSpace=wrap;html=1;left=0;right=0;fillColor=#f5f5f5;strokeColor=#666666;fontSize=11;fontStyle=1;align=left;spacingLeft=10;" vertex="1" parent="1">
          <mxGeometry x="1030" y="1050" width="200" height="45" as="geometry"/>
        </mxCell>
        <mxCell id="id_38" value="3.1\n\nПрийом та\nвалідація\nзамовлення" style="ellipse;whiteSpace=wrap;html=1;fillColor=#ffe6cc;strokeColor=#d79b00;fontSize=10;fontStyle=1;strokeWidth=2;" vertex="1" parent="1">
          <mxGeometry x="100" y="1200" width="130" height="130" as="geometry"/>
        </mxCell>
        <mxCell id="id_39" value="3.2\n\nПеревірка\nдоступності\nтоварів" style="ellipse;whiteSpace=wrap;html=1;fillColor=#ffe6cc;strokeColor=#d79b00;fontSize=10;fontStyle=1;strokeWidth=2;" vertex="1" parent="1">
          <mxGeometry x="300" y="1200" width="130" height="130" as="geometry"/>
        </mxCell>
        <mxCell id="id_40" value="3.3\n\nРозрахунок\nвартості та\nподатків" style="ellipse;whiteSpace=wrap;html=1;fillColor=#ffe6cc;strokeColor=#d79b00;fontSize=10;fontStyle=1;strokeWidth=2;" vertex="1" parent="1">
          <mxGeometry x="500" y="1200" width="130" height="130" as="geometry"/>
        </mxCell>
        <mxCell id="id_41" value="3.4\n\nРезервування\nтоварів на\nскладі" style="ellipse;whiteSpace=wrap;html=1;fillColor=#ffe6cc;strokeColor=#d79b00;fontSize=10;fontStyle=1;strokeWidth=2;" vertex="1" parent="1">
          <mxGeometry x="700" y="1200" width="130" height="130" as="geometry"/>
        </mxCell>
        <mxCell id="id_42" value="3.5\n\nГенерація\nфінального\nзамовлення" style="ellipse;whiteSpace=wrap;html=1;fillColor=#ffe6cc;strokeColor=#d79b00;fontSize=10;fontStyle=1;strokeWidth=2;" vertex="1" parent="1">
          <mxGeometry x="900" y="1200" width="130" height="130" as="geometry"/>
        </mxCell>
        <mxCell id="id_43" value="3.6\n\nПідтвердження\nта нотифікація\nклієнта" style="ellipse;whiteSpace=wrap;html=1;fillColor=#ffe6cc;strokeColor=#d79b00;fontSize=10;fontStyle=1;strokeWidth=2;" vertex="1" parent="1">
          <mxGeometry x="1100" y="1200" width="130" height="130" as="geometry"/>
        </mxCell>
        <mxCell id="id_44" value="Валідовані\nдані замовлення\n+ ID користувача" style="endArrow=classic;html=1;rounded=0;fontSize=9;labelBackgroundColor=#ffffff;strokeWidth=2;strokeColor=#d79b00;" edge="1" parent="1" source="id_38" target="id_39">
          <mxGeometry relative="1" as="geometry"/>
        </mxCell>
        <mxCell id="id_45" value="Підтверджена\nналяність товарів\n+ кількість" style="endArrow=classic;html=1;rounded=0;fontSize=9;labelBackgroundColor=#ffffff;strokeWidth=2;strokeColor=#d79b00;" edge="1" parent="1" source="id_39" target="id_40">
          <mxGeometry relative="1" as="geometry"/>
        </mxCell>
        <mxCell id="id_46" value="Розрахована\nповна вартість\n+ податки" style="endArrow=classic;html=1;rounded=0;fontSize=9;labelBackgroundColor=#ffffff;strokeWidth=2;strokeColor=#d79b00;" edge="1" parent="1" source="id_40" target="id_41">
          <mxGeometry relative="1" as="geometry"/>
        </mxCell>
        <mxCell id="id_47" value="Зарезервовані\nтовари + номер\nрезервації" style="endArrow=classic;html=1;rounded=0;fontSize=9;labelBackgroundColor=#ffffff;strokeWidth=2;strokeColor=#d79b00;" edge="1" parent="1" source="id_41" target="id_42">
          <mxGeometry relative="1" as="geometry"/>
        </mxCell>
        <mxCell id="id_48" value="Фінальне\nзамовлення\n+ унікальний ID" style="endArrow=classic;html=1;rounded=0;fontSize=9;labelBackgroundColor=#ffffff;strokeWidth=2;strokeColor=#d79b00;" edge="1" parent="1" source="id_42" target="id_43">
          <mxGeometry relative="1" as="geometry"/>
        </mxCell>

      </root>
    </mxGraphModel>
  </diagram>
  <diagram id="page2" name="Enhanced BPMN 2.0">
    <mxGraphModel dx="1422" dy="794" grid="1" gridSize="10" guides="1" tooltips="1" connect="1" arrows="1" fold="1" page="1" pageScale="1" pageWidth="1600" pageHeight="1200" math="0" shadow="0">
      <root>
        <mxCell id="0"/>
        <mxCell id="1" parent="0"/>
        <mxCell id="id_49" value="Клієнт (Customer)" style="swimlane;html=1;childLayout=stackLayout;resizeParent=1;resizeParentMax=0;horizontal=0;fillColor=#e1d5e7;strokeColor=#666666;fontSize=12;fontStyle=1;strokeWidth=2;" vertex="1" parent="1">
          <mxGeometry x="50" y="50" width="1400" height="200" as="geometry"/>
        </mxCell>
        <mxCell id="id_50" value="Веб-система ТехноСвіт (Web System)" style="swimlane;html=1;childLayout=stackLayout;resizeParent=1;resizeParentMax=0;horizontal=0;fillColor=#dae8fc;strokeColor=#666666;fontSize=12;fontStyle=1;strokeWidth=2;" vertex="1" parent="1">
          <mxGeometry x="50" y="270" width="1400" height="220" as="geometry"/>
        </mxCell>
        <mxCell id="id_51" value="Платіжна система (Payment Gateway)" style="swimlane;html=1;childLayout=stackLayout;resizeParent=1;resizeParentMax=0;horizontal=0;fillColor=#d5e8d4;strokeColor=#666666;fontSize=12;fontStyle=1;strokeWidth=2;" vertex="1" parent="1">
          <mxGeometry x="50" y="510" width="1400" height="140" as="geometry"/>
        </mxCell>
        <mxCell id="id_52" value="Служба доставки (Shipping Service)" style="swimlane;html=1;childLayout=stackLayout;resizeParent=1;resizeParentMax=0;horizontal=0;fillColor=#f8cecc;strokeColor=#666666;fontSize=12;fontStyle=1;strokeWidth=2;" vertex="1" parent="1">
          <mxGeometry x="50" y="670" width="1400" height="140" as="geometry"/>
        </mxCell>
        <mxCell id="id_53" value="Склад та логістика (Warehouse)" style="swimlane;html=1;childLayout=stackLayout;resizeParent=1;resizeParentMax=0;horizontal=0;fillColor=#fff2cc;strokeColor=#666666;fontSize=12;fontStyle=1;strokeWidth=2;" vertex="1" parent="1">
          <mxGeometry x="50" y="830" width="1400" height="120" as="geometry"/>
        </mxCell>
        <mxCell id="id_54" value="Потреба\nв товарі" style="ellipse;whiteSpace=wrap;html=1;fillColor=#d5e8d4;strokeColor=#82b366;fontSize=10;strokeWidth=2;" vertex="1" parent="id_49">
          <mxGeometry x="70" y="60" width="70" height="70" as="geometry"/>
        </mxCell>
        <mxCell id="id_55" value="Пошук\nтоварів\nу каталозі" style="rounded=1;whiteSpace=wrap;html=1;fillColor=#fff2cc;strokeColor=#d6b656;fontSize=10;strokeWidth=2;" vertex="1" parent="id_49">
          <mxGeometry x="170" y="60" width="90" height="70" as="geometry"/>
        </mxCell>
        <mxCell id="id_56" value="Вибір\nконкретного\nтовару" style="rounded=1;whiteSpace=wrap;html=1;fillColor=#fff2cc;strokeColor=#d6b656;fontSize=10;strokeWidth=2;" vertex="1" parent="id_49">
          <mxGeometry x="290" y="60" width="90" height="70" as="geometry"/>
        </mxCell>
        <mxCell id="id_57" value="Додавання\nв кошик" style="rounded=1;whiteSpace=wrap;html=1;fillColor=#fff2cc;strokeColor=#d6b656;fontSize=10;strokeWidth=2;" vertex="1" parent="id_49">
          <mxGeometry x="410" y="60" width="90" height="70" as="geometry"/>
        </mxCell>
        <mxCell id="id_58" value="Оформлення\nзамовлення" style="rounded=1;whiteSpace=wrap;html=1;fillColor=#fff2cc;strokeColor=#d6b656;fontSize=10;strokeWidth=2;" vertex="1" parent="id_49">
          <mxGeometry x="530" y="60" width="90" height="70" as="geometry"/>
        </mxCell>
        <mxCell id="id_59" value="Введення\nплатіжних\nданих" style="rounded=1;whiteSpace=wrap;html=1;fillColor=#fff2cc;strokeColor=#d6b656;fontSize=10;strokeWidth=2;" vertex="1" parent="id_49">
          <mxGeometry x="770" y="60" width="90" height="70" as="geometry"/>
        </mxCell>
        <mxCell id="id_60" value="Отримання\nтовару" style="rounded=1;whiteSpace=wrap;html=1;fillColor=#fff2cc;strokeColor=#d6b656;fontSize=10;strokeWidth=2;" vertex="1" parent="id_49">
          <mxGeometry x="1150" y="60" width="90" height="70" as="geometry"/>
        </mxCell>
        <mxCell id="id_61" value="Відображення\nрезультатів\nпошуку" style="rounded=1;whiteSpace=wrap;html=1;fillColor=#dae8fc;strokeColor=#6c8ebf;fontSize=10;strokeWidth=2;" vertex="1" parent="id_50">
          <mxGeometry x="170" y="60" width="90" height="70" as="geometry"/>
        </mxCell>
        <mxCell id="id_62" value="Показ\nдеталей\nтовару" style="rounded=1;whiteSpace=wrap;html=1;fillColor=#dae8fc;strokeColor=#6c8ebf;fontSize=10;strokeWidth=2;" vertex="1" parent="id_50">
          <mxGeometry x="290" y="60" width="90" height="70" as="geometry"/>
        </mxCell>
        <mxCell id="id_63" value="Оновлення\nкошика" style="rounded=1;whiteSpace=wrap;html=1;fillColor=#dae8fc;strokeColor=#6c8ebf;fontSize=10;strokeWidth=2;" vertex="1" parent="id_50">
          <mxGeometry x="410" y="60" width="90" height="70" as="geometry"/>
        </mxCell>
        <mxCell id="id_64" value="Валідація\nданих\nзамовлення" style="rounded=1;whiteSpace=wrap;html=1;fillColor=#dae8fc;strokeColor=#6c8ebf;fontSize=10;strokeWidth=2;" vertex="1" parent="id_50">
          <mxGeometry x="530" y="60" width="90" height="70" as="geometry"/>
        </mxCell>
        <mxCell id="id_65" value="Підтвердження\nуспішної\nоплати" style="rounded=1;whiteSpace=wrap;html=1;fillColor=#dae8fc;strokeColor=#6c8ebf;fontSize=10;strokeWidth=2;" vertex="1" parent="id_50">
          <mxGeometry x="890" y="60" width="90" height="70" as="geometry"/>
        </mxCell>
        <mxCell id="id_66" value="Створення\nзавдання\nдля доставки" style="rounded=1;whiteSpace=wrap;html=1;fillColor=#dae8fc;strokeColor=#6c8ebf;fontSize=10;strokeWidth=2;" vertex="1" parent="id_50">
          <mxGeometry x="1010" y="60" width="90" height="70" as="geometry"/>
        </mxCell>
        <mxCell id="id_67" value="Оновлення\nстатусу\nзамовлення" style="rounded=1;whiteSpace=wrap;html=1;fillColor=#dae8fc;strokeColor=#6c8ebf;fontSize=10;strokeWidth=2;" vertex="1" parent="id_50">
          <mxGeometry x="1150" y="60" width="90" height="70" as="geometry"/>
        </mxCell>
        <mxCell id="id_68" value="Товар\nдоступний?" style="rhombus;whiteSpace=wrap;html=1;fillColor=#ffe6cc;strokeColor=#d79b00;fontSize=9;strokeWidth=2;" vertex="1" parent="id_49">
          <mxGeometry x="650" y="50" width="90" height="90" as="geometry"/>
        </mxCell>
        <mxCell id="id_69" value="Дані\nвалідні?" style="rhombus;whiteSpace=wrap;html=1;fillColor=#ffe6cc;strokeColor=#d79b00;fontSize=9;strokeWidth=2;" vertex="1" parent="id_50">
          <mxGeometry x="650" y="50" width="90" height="90" as="geometry"/>
        </mxCell>
        <mxCell id="id_70" value="Авторизація\nкартки" style="rounded=1;whiteSpace=wrap;html=1;fillColor=#d5e8d4;strokeColor=#82b366;fontSize=10;strokeWidth=2;" vertex="1" parent="id_51">
          <mxGeometry x="770" y="40" width="90" height="60" as="geometry"/>
        </mxCell>
        <mxCell id="id_71" value="Списання\nкоштів" style="rounded=1;whiteSpace=wrap;html=1;fillColor=#d5e8d4;strokeColor=#82b366;fontSize=10;strokeWidth=2;" vertex="1" parent="id_51">
          <mxGeometry x="890" y="40" width="90" height="60" as="geometry"/>
        </mxCell>
        <mxCell id="id_72" value="Планування\nмаршруту" style="rounded=1;whiteSpace=wrap;html=1;fillColor=#f8cecc;strokeColor=#b85450;fontSize=10;strokeWidth=2;" vertex="1" parent="id_52">
          <mxGeometry x="1010" y="40" width="90" height="60" as="geometry"/>
        </mxCell>
        <mxCell id="id_73" value="Доставка\nклієнту" style="rounded=1;whiteSpace=wrap;html=1;fillColor=#f8cecc;strokeColor=#b85450;fontSize=10;strokeWidth=2;" vertex="1" parent="id_52">
          <mxGeometry x="1130" y="40" width="90" height="60" as="geometry"/>
        </mxCell>
        <mxCell id="id_74" value="Перевірка\nналяності" style="rounded=1;whiteSpace=wrap;html=1;fillColor=#fff2cc;strokeColor=#d6b656;fontSize=10;strokeWidth=2;" vertex="1" parent="id_53">
          <mxGeometry x="530" y="40" width="90" height="60" as="geometry"/>
        </mxCell>
        <mxCell id="id_75" value="Підготовка\nтовару" style="rounded=1;whiteSpace=wrap;html=1;fillColor=#fff2cc;strokeColor=#d6b656;fontSize=10;strokeWidth=2;" vertex="1" parent="id_53">
          <mxGeometry x="1010" y="40" width="90" height="60" as="geometry"/>
        </mxCell>
        <mxCell id="id_76" value="Замовлення\nвиконано" style="ellipse;whiteSpace=wrap;html=1;fillColor=#f8cecc;strokeColor=#b85450;fontSize=10;strokeWidth=4;" vertex="1" parent="id_49">
          <mxGeometry x="1320" y="60" width="70" height="70" as="geometry"/>
        </mxCell>
        <mxCell id="id_77" value="" style="endArrow=classic;html=1;rounded=0;strokeColor=#000000;strokeWidth=2;fontSize=9;labelBackgroundColor=#ffffff;" edge="1" parent="1" source="id_54" target="id_55">
          <mxGeometry relative="1" as="geometry"/>
        </mxCell>
        <mxCell id="id_78" value="" style="endArrow=classic;html=1;rounded=0;strokeColor=#000000;strokeWidth=2;fontSize=9;labelBackgroundColor=#ffffff;" edge="1" parent="1" source="id_55" target="id_56">
          <mxGeometry relative="1" as="geometry"/>
        </mxCell>
        <mxCell id="id_79" value="" style="endArrow=classic;html=1;rounded=0;strokeColor=#000000;strokeWidth=2;fontSize=9;labelBackgroundColor=#ffffff;" edge="1" parent="1" source="id_56" target="id_57">
          <mxGeometry relative="1" as="geometry"/>
        </mxCell>
        <mxCell id="id_80" value="" style="endArrow=classic;html=1;rounded=0;strokeColor=#000000;strokeWidth=2;fontSize=9;labelBackgroundColor=#ffffff;" edge="1" parent="1" source="id_57" target="id_58">
          <mxGeometry relative="1" as="geometry"/>
        </mxCell>
        <mxCell id="id_81" value="" style="endArrow=classic;html=1;rounded=0;strokeColor=#000000;strokeWidth=2;fontSize=9;labelBackgroundColor=#ffffff;" edge="1" parent="1" source="id_58" target="id_68">
          <mxGeometry relative="1" as="geometry"/>
        </mxCell>
        <mxCell id="id_82" value="Так" style="endArrow=classic;html=1;rounded=0;strokeColor=#000000;strokeWidth=2;fontSize=9;labelBackgroundColor=#ffffff;" edge="1" parent="1" source="id_68" target="id_59">
          <mxGeometry relative="1" as="geometry"/>
        </mxCell>
        <mxCell id="id_83" value="" style="endArrow=classic;html=1;rounded=0;strokeColor=#000000;strokeWidth=2;fontSize=9;labelBackgroundColor=#ffffff;" edge="1" parent="1" source="id_59" target="id_60">
          <mxGeometry relative="1" as="geometry"/>
        </mxCell>
        <mxCell id="id_84" value="" style="endArrow=classic;html=1;rounded=0;strokeColor=#000000;strokeWidth=2;fontSize=9;labelBackgroundColor=#ffffff;" edge="1" parent="1" source="id_60" target="id_76">
          <mxGeometry relative="1" as="geometry"/>
        </mxCell>
        <mxCell id="id_85" value="Запит пошуку" style="endArrow=classic;html=1;rounded=0;strokeColor=#6c8ebf;strokeWidth=2;dashed=1;fontSize=9;labelBackgroundColor=#ffffff;" edge="1" parent="1" source="id_55" target="id_61">
          <mxGeometry relative="1" as="geometry"/>
        </mxCell>
        <mxCell id="id_86" value="Результати" style="endArrow=classic;html=1;rounded=0;strokeColor=#6c8ebf;strokeWidth=2;dashed=1;fontSize=9;labelBackgroundColor=#ffffff;" edge="1" parent="1" source="id_61" target="id_55">
          <mxGeometry relative="1" as="geometry"/>
        </mxCell>
        <mxCell id="id_87" value="Запит деталей" style="endArrow=classic;html=1;rounded=0;strokeColor=#6c8ebf;strokeWidth=2;dashed=1;fontSize=9;labelBackgroundColor=#ffffff;" edge="1" parent="1" source="id_56" target="id_62">
          <mxGeometry relative="1" as="geometry"/>
        </mxCell>
        <mxCell id="id_88" value="Інформація про товар" style="endArrow=classic;html=1;rounded=0;strokeColor=#6c8ebf;strokeWidth=2;dashed=1;fontSize=9;labelBackgroundColor=#ffffff;" edge="1" parent="1" source="id_62" target="id_56">
          <mxGeometry relative="1" as="geometry"/>
        </mxCell>
        <mxCell id="id_89" value="Дані кошика" style="endArrow=classic;html=1;rounded=0;strokeColor=#6c8ebf;strokeWidth=2;dashed=1;fontSize=9;labelBackgroundColor=#ffffff;" edge="1" parent="1" source="id_57" target="id_63">
          <mxGeometry relative="1" as="geometry"/>
        </mxCell>
        <mxCell id="id_90" value="Дані замовлення" style="endArrow=classic;html=1;rounded=0;strokeColor=#6c8ebf;strokeWidth=2;dashed=1;fontSize=9;labelBackgroundColor=#ffffff;" edge="1" parent="1" source="id_58" target="id_64">
          <mxGeometry relative="1" as="geometry"/>
        </mxCell>
        <mxCell id="id_91" value="Платіжні дані" style="endArrow=classic;html=1;rounded=0;strokeColor=#6c8ebf;strokeWidth=2;dashed=1;fontSize=9;labelBackgroundColor=#ffffff;" edge="1" parent="1" source="id_59" target="id_70">
          <mxGeometry relative="1" as="geometry"/>
        </mxCell>
        <mxCell id="id_92" value="Підтвердження оплати" style="endArrow=classic;html=1;rounded=0;strokeColor=#6c8ebf;strokeWidth=2;dashed=1;fontSize=9;labelBackgroundColor=#ffffff;" edge="1" parent="1" source="id_71" target="id_65">
          <mxGeometry relative="1" as="geometry"/>
        </mxCell>
        <mxCell id="id_93" value="Запит наявності" style="endArrow=classic;html=1;rounded=0;strokeColor=#d79b00;strokeWidth=1;dashPattern=1 4;fontSize=9;labelBackgroundColor=#ffffff;" edge="1" parent="1" source="id_64" target="id_74">
          <mxGeometry relative="1" as="geometry"/>
        </mxCell>
        <mxCell id="id_94" value="Статус наявності" style="endArrow=classic;html=1;rounded=0;strokeColor=#d79b00;strokeWidth=1;dashPattern=1 4;fontSize=9;labelBackgroundColor=#ffffff;" edge="1" parent="1" source="id_74" target="id_69">
          <mxGeometry relative="1" as="geometry"/>
        </mxCell>
        <mxCell id="id_95" value="Дані доставки" style="endArrow=classic;html=1;rounded=0;strokeColor=#d79b00;strokeWidth=1;dashPattern=1 4;fontSize=9;labelBackgroundColor=#ffffff;" edge="1" parent="1" source="id_66" target="id_72">
          <mxGeometry relative="1" as="geometry"/>
        </mxCell>
        <mxCell id="id_96" value="Статус доставки" style="endArrow=classic;html=1;rounded=0;strokeColor=#d79b00;strokeWidth=1;dashPattern=1 4;fontSize=9;labelBackgroundColor=#ffffff;" edge="1" parent="1" source="id_73" target="id_67">
          <mxGeometry relative="1" as="geometry"/>
        </mxCell>

      </root>
    </mxGraphModel>
  </diagram>
  <diagram id="page3" name="Structured Activity Diagram">
    <mxGraphModel dx="1422" dy="794" grid="1" gridSize="10" guides="1" tooltips="1" connect="1" arrows="1" fold="1" page="1" pageScale="1" pageWidth="1600" pageHeight="1200" math="0" shadow="0">
      <root>
        <mxCell id="0"/>
        <mxCell id="1" parent="0"/>
        <mxCell id="id_97" value="" style="ellipse;whiteSpace=wrap;html=1;fillColor=#000000;strokeColor=#000000;" vertex="1" parent="1">
          <mxGeometry x="550" y="50" width="30" height="30" as="geometry"/>
        </mxCell>
        <mxCell id="id_98" value="Клієнт\n(Customer)" style="swimlane;html=1;childLayout=stackLayout;resizeParent=1;resizeParentMax=0;startSize=50;fillColor=#e1d5e7;strokeColor=#666666;fontSize=12;fontStyle=1;strokeWidth=2;" vertex="1" parent="1">
          <mxGeometry x="50" y="120" width="220" height="1200" as="geometry"/>
        </mxCell>
        <mxCell id="id_99" value="Веб-інтерфейс\n(Web Interface)" style="swimlane;html=1;childLayout=stackLayout;resizeParent=1;resizeParentMax=0;startSize=50;fillColor=#dae8fc;strokeColor=#666666;fontSize=12;fontStyle=1;strokeWidth=2;" vertex="1" parent="1">
          <mxGeometry x="270" y="120" width="220" height="1200" as="geometry"/>
        </mxCell>
        <mxCell id="id_100" value="Бізнес-логіка\n(Business Logic)" style="swimlane;html=1;childLayout=stackLayout;resizeParent=1;resizeParentMax=0;startSize=50;fillColor=#d5e8d4;strokeColor=#666666;fontSize=12;fontStyle=1;strokeWidth=2;" vertex="1" parent="1">
          <mxGeometry x="490" y="120" width="220" height="1200" as="geometry"/>
        </mxCell>
        <mxCell id="id_101" value="База даних\n(Database)" style="swimlane;html=1;childLayout=stackLayout;resizeParent=1;resizeParentMax=0;startSize=50;fillColor=#fff2cc;strokeColor=#666666;fontSize=12;fontStyle=1;strokeWidth=2;" vertex="1" parent="1">
          <mxGeometry x="710" y="120" width="220" height="1200" as="geometry"/>
        </mxCell>
        <mxCell id="id_102" value="Зовнішні сервіси\n(External Services)" style="swimlane;html=1;childLayout=stackLayout;resizeParent=1;resizeParentMax=0;startSize=50;fillColor=#f8cecc;strokeColor=#666666;fontSize=12;fontStyle=1;strokeWidth=2;" vertex="1" parent="1">
          <mxGeometry x="930" y="120" width="220" height="1200" as="geometry"/>
        </mxCell>
        <mxCell id="id_103" value="Відкрити\nвеб-сайт" style="rounded=1;whiteSpace=wrap;html=1;fillColor=#fff2cc;strokeColor=#d6b656;fontSize=10;strokeWidth=2;" vertex="1" parent="id_98">
          <mxGeometry x="30" y="80" width="140" height="60" as="geometry"/>
        </mxCell>
        <mxCell id="id_104" value="Ввести пошуковий\nзапит" style="rounded=1;whiteSpace=wrap;html=1;fillColor=#fff2cc;strokeColor=#d6b656;fontSize=10;strokeWidth=2;" vertex="1" parent="id_98">
          <mxGeometry x="30" y="200" width="140" height="60" as="geometry"/>
        </mxCell>
        <mxCell id="id_105" value="Переглянути\nдеталі товару" style="rounded=1;whiteSpace=wrap;html=1;fillColor=#fff2cc;strokeColor=#d6b656;fontSize=10;strokeWidth=2;" vertex="1" parent="id_98">
          <mxGeometry x="30" y="400" width="140" height="60" as="geometry"/>
        </mxCell>
        <mxCell id="id_106" value="Додати товар\nв кошик" style="rounded=1;whiteSpace=wrap;html=1;fillColor=#fff2cc;strokeColor=#d6b656;fontSize=10;strokeWidth=2;" vertex="1" parent="id_98">
          <mxGeometry x="30" y="600" width="140" height="60" as="geometry"/>
        </mxCell>
        <mxCell id="id_107" value="Оформити\nзамовлення" style="rounded=1;whiteSpace=wrap;html=1;fillColor=#fff2cc;strokeColor=#d6b656;fontSize=10;strokeWidth=2;" vertex="1" parent="id_98">
          <mxGeometry x="30" y="800" width="140" height="60" as="geometry"/>
        </mxCell>
        <mxCell id="id_108" value="Підтвердити\nоплату" style="rounded=1;whiteSpace=wrap;html=1;fillColor=#fff2cc;strokeColor=#d6b656;fontSize=10;strokeWidth=2;" vertex="1" parent="id_98">
          <mxGeometry x="30" y="1000" width="140" height="60" as="geometry"/>
        </mxCell>
        <mxCell id="id_109" value="Завантажити\nголовну сторінку" style="rounded=1;whiteSpace=wrap;html=1;fillColor=#dae8fc;strokeColor=#6c8ebf;fontSize=10;strokeWidth=2;" vertex="1" parent="id_99">
          <mxGeometry x="30" y="80" width="140" height="60" as="geometry"/>
        </mxCell>
        <mxCell id="id_110" value="Відобразити\nформу пошуку" style="rounded=1;whiteSpace=wrap;html=1;fillColor=#dae8fc;strokeColor=#6c8ebf;fontSize=10;strokeWidth=2;" vertex="1" parent="id_99">
          <mxGeometry x="30" y="200" width="140" height="60" as="geometry"/>
        </mxCell>
        <mxCell id="id_111" value="Показати\nрезультати пошуку" style="rounded=1;whiteSpace=wrap;html=1;fillColor=#dae8fc;strokeColor=#6c8ebf;fontSize=10;strokeWidth=2;" vertex="1" parent="id_99">
          <mxGeometry x="30" y="300" width="140" height="60" as="geometry"/>
        </mxCell>
        <mxCell id="id_112" value="Відобразити\nсторінку товару" style="rounded=1;whiteSpace=wrap;html=1;fillColor=#dae8fc;strokeColor=#6c8ebf;fontSize=10;strokeWidth=2;" vertex="1" parent="id_99">
          <mxGeometry x="30" y="400" width="140" height="60" as="geometry"/>
        </mxCell>
        <mxCell id="id_113" value="Оновити\nвідображення кошика" style="rounded=1;whiteSpace=wrap;html=1;fillColor=#dae8fc;strokeColor=#6c8ebf;fontSize=10;strokeWidth=2;" vertex="1" parent="id_99">
          <mxGeometry x="30" y="600" width="140" height="60" as="geometry"/>
        </mxCell>
        <mxCell id="id_114" value="Показати форму\nзамовлення" style="rounded=1;whiteSpace=wrap;html=1;fillColor=#dae8fc;strokeColor=#6c8ebf;fontSize=10;strokeWidth=2;" vertex="1" parent="id_99">
          <mxGeometry x="30" y="700" width="140" height="60" as="geometry"/>
        </mxCell>
        <mxCell id="id_115" value="Відобразити\nформу оплати" style="rounded=1;whiteSpace=wrap;html=1;fillColor=#dae8fc;strokeColor=#6c8ebf;fontSize=10;strokeWidth=2;" vertex="1" parent="id_99">
          <mxGeometry x="30" y="900" width="140" height="60" as="geometry"/>
        </mxCell>
        <mxCell id="id_116" value="Обробити\nпошуковий запит" style="rounded=1;whiteSpace=wrap;html=1;fillColor=#d5e8d4;strokeColor=#82b366;fontSize=10;strokeWidth=2;" vertex="1" parent="id_100">
          <mxGeometry x="30" y="200" width="140" height="60" as="geometry"/>
        </mxCell>
        <mxCell id="id_117" value="Фільтрувати\nрезультати" style="rounded=1;whiteSpace=wrap;html=1;fillColor=#d5e8d4;strokeColor=#82b366;fontSize=10;strokeWidth=2;" vertex="1" parent="id_100">
          <mxGeometry x="30" y="300" width="140" height="60" as="geometry"/>
        </mxCell>
        <mxCell id="id_118" value="Перевірити\nналяність товару" style="rounded=1;whiteSpace=wrap;html=1;fillColor=#d5e8d4;strokeColor=#82b366;fontSize=10;strokeWidth=2;" vertex="1" parent="id_100">
          <mxGeometry x="30" y="500" width="140" height="60" as="geometry"/>
        </mxCell>
        <mxCell id="id_119" value="Додати до\nсесійного кошика" style="rounded=1;whiteSpace=wrap;html=1;fillColor=#d5e8d4;strokeColor=#82b366;fontSize=10;strokeWidth=2;" vertex="1" parent="id_100">
          <mxGeometry x="30" y="600" width="140" height="60" as="geometry"/>
        </mxCell>
        <mxCell id="id_120" value="Валідувати\nдані замовлення" style="rounded=1;whiteSpace=wrap;html=1;fillColor=#d5e8d4;strokeColor=#82b366;fontSize=10;strokeWidth=2;" vertex="1" parent="id_100">
          <mxGeometry x="30" y="700" width="140" height="60" as="geometry"/>
        </mxCell>
        <mxCell id="id_121" value="Розрахувати\nзагальну вартість" style="rounded=1;whiteSpace=wrap;html=1;fillColor=#d5e8d4;strokeColor=#82b366;fontSize=10;strokeWidth=2;" vertex="1" parent="id_100">
          <mxGeometry x="30" y="800" width="140" height="60" as="geometry"/>
        </mxCell>
        <mxCell id="id_122" value="Ініціювати\nплатіжний процес" style="rounded=1;whiteSpace=wrap;html=1;fillColor=#d5e8d4;strokeColor=#82b366;fontSize=10;strokeWidth=2;" vertex="1" parent="id_100">
          <mxGeometry x="30" y="900" width="140" height="60" as="geometry"/>
        </mxCell>
        <mxCell id="id_123" value="Створити\nзамовлення" style="rounded=1;whiteSpace=wrap;html=1;fillColor=#d5e8d4;strokeColor=#82b366;fontSize=10;strokeWidth=2;" vertex="1" parent="id_100">
          <mxGeometry x="30" y="1000" width="140" height="60" as="geometry"/>
        </mxCell>
        <mxCell id="id_124" value="Пошук у\nіндексах товарів" style="rounded=1;whiteSpace=wrap;html=1;fillColor=#fff2cc;strokeColor=#d6b656;fontSize=10;strokeWidth=2;" vertex="1" parent="id_101">
          <mxGeometry x="30" y="200" width="140" height="60" as="geometry"/>
        </mxCell>
        <mxCell id="id_125" value="Вибірка за\nкритеріями" style="rounded=1;whiteSpace=wrap;html=1;fillColor=#fff2cc;strokeColor=#d6b656;fontSize=10;strokeWidth=2;" vertex="1" parent="id_101">
          <mxGeometry x="30" y="300" width="140" height="60" as="geometry"/>
        </mxCell>
        <mxCell id="id_126" value="Отримати\nдані товару" style="rounded=1;whiteSpace=wrap;html=1;fillColor=#fff2cc;strokeColor=#d6b656;fontSize=10;strokeWidth=2;" vertex="1" parent="id_101">
          <mxGeometry x="30" y="400" width="140" height="60" as="geometry"/>
        </mxCell>
        <mxCell id="id_127" value="Перевірити\nкількість на складі" style="rounded=1;whiteSpace=wrap;html=1;fillColor=#fff2cc;strokeColor=#d6b656;fontSize=10;strokeWidth=2;" vertex="1" parent="id_101">
          <mxGeometry x="30" y="500" width="140" height="60" as="geometry"/>
        </mxCell>
        <mxCell id="id_128" value="Розрахувати\nподатки та знижки" style="rounded=1;whiteSpace=wrap;html=1;fillColor=#fff2cc;strokeColor=#d6b656;fontSize=10;strokeWidth=2;" vertex="1" parent="id_101">
          <mxGeometry x="30" y="800" width="140" height="60" as="geometry"/>
        </mxCell>
        <mxCell id="id_129" value="Зберегти\nзамовлення" style="rounded=1;whiteSpace=wrap;html=1;fillColor=#fff2cc;strokeColor=#d6b656;fontSize=10;strokeWidth=2;" vertex="1" parent="id_101">
          <mxGeometry x="30" y="1000" width="140" height="60" as="geometry"/>
        </mxCell>
        <mxCell id="id_130" value="Обробити\nплатіж" style="rounded=1;whiteSpace=wrap;html=1;fillColor=#f8cecc;strokeColor=#b85450;fontSize=10;strokeWidth=2;" vertex="1" parent="id_102">
          <mxGeometry x="30" y="900" width="140" height="60" as="geometry"/>
        </mxCell>
        <mxCell id="id_131" value="Надіслати\nповідомлення" style="rounded=1;whiteSpace=wrap;html=1;fillColor=#f8cecc;strokeColor=#b85450;fontSize=10;strokeWidth=2;" vertex="1" parent="id_102">
          <mxGeometry x="30" y="1100" width="140" height="60" as="geometry"/>
        </mxCell>
        <mxCell id="id_132" value="Товар\nзнайдено?" style="rhombus;whiteSpace=wrap;html=1;fillColor=#fff2cc;strokeColor=#d6b656;fontSize=10;strokeWidth=2;" vertex="1" parent="id_98">
          <mxGeometry x="80" y="480" width="100" height="80" as="geometry"/>
        </mxCell>
        <mxCell id="id_133" value="Дані\nвалідні?" style="rhombus;whiteSpace=wrap;html=1;fillColor=#d5e8d4;strokeColor=#82b366;fontSize=10;strokeWidth=2;" vertex="1" parent="id_100">
          <mxGeometry x="80" y="730" width="100" height="80" as="geometry"/>
        </mxCell>
        <mxCell id="id_134" value="Платіж\nуспішний?" style="rhombus;whiteSpace=wrap;html=1;fillColor=#f8cecc;strokeColor=#b85450;fontSize=10;strokeWidth=2;" vertex="1" parent="id_102">
          <mxGeometry x="80" y="930" width="100" height="80" as="geometry"/>
        </mxCell>
        <mxCell id="id_135" value="" style="shape=line;html=1;strokeWidth=8;strokeColor=#000000;" vertex="1" parent="1">
          <mxGeometry x="400" y="680" width="300" height="10" as="geometry"/>
        </mxCell>
        <mxCell id="id_136" value="" style="shape=line;html=1;strokeWidth=8;strokeColor=#000000;" vertex="1" parent="1">
          <mxGeometry x="400" y="1180" width="300" height="10" as="geometry"/>
        </mxCell>
        <mxCell id="id_137" value="" style="ellipse;whiteSpace=wrap;html=1;fillColor=#ffffff;strokeColor=#000000;strokeWidth=6;" vertex="1" parent="1">
          <mxGeometry x="550" y="1250" width="40" height="40" as="geometry"/>
        </mxCell>
        <mxCell id="id_138" value="" style="ellipse;whiteSpace=wrap;html=1;fillColor=#000000;strokeColor=#000000;" vertex="1" parent="1">
          <mxGeometry x="560" y="1260" width="20" height="20" as="geometry"/>
        </mxCell>
        <mxCell id="id_139" value="" style="endArrow=classic;html=1;rounded=0;fontSize=9;labelBackgroundColor=#ffffff;strokeWidth=2;strokeColor=#666666;" edge="1" parent="1" source="id_97" target="id_103">
          <mxGeometry relative="1" as="geometry"/>
        </mxCell>
        <mxCell id="id_140" value="HTTP запит" style="endArrow=classic;html=1;rounded=0;fontSize=9;labelBackgroundColor=#ffffff;strokeWidth=2;strokeColor=#666666;" edge="1" parent="1" source="id_103" target="id_109">
          <mxGeometry relative="1" as="geometry"/>
        </mxCell>
        <mxCell id="id_141" value="Пошуковий запит" style="endArrow=classic;html=1;rounded=0;fontSize=9;labelBackgroundColor=#ffffff;strokeWidth=2;strokeColor=#666666;" edge="1" parent="1" source="id_104" target="id_110">
          <mxGeometry relative="1" as="geometry"/>
        </mxCell>
        <mxCell id="id_142" value="Запит на обробку" style="endArrow=classic;html=1;rounded=0;fontSize=9;labelBackgroundColor=#ffffff;strokeWidth=2;strokeColor=#666666;" edge="1" parent="1" source="id_110" target="id_116">
          <mxGeometry relative="1" as="geometry"/>
        </mxCell>
        <mxCell id="id_143" value="SQL запит" style="endArrow=classic;html=1;rounded=0;fontSize=9;labelBackgroundColor=#ffffff;strokeWidth=2;strokeColor=#666666;" edge="1" parent="1" source="id_116" target="id_124">
          <mxGeometry relative="1" as="geometry"/>
        </mxCell>
        <mxCell id="id_144" value="Результати БД" style="endArrow=classic;html=1;rounded=0;fontSize=9;labelBackgroundColor=#ffffff;strokeWidth=2;strokeColor=#666666;" edge="1" parent="1" source="id_124" target="id_117">
          <mxGeometry relative="1" as="geometry"/>
        </mxCell>
        <mxCell id="id_145" value="Відфільтровані дані" style="endArrow=classic;html=1;rounded=0;fontSize=9;labelBackgroundColor=#ffffff;strokeWidth=2;strokeColor=#666666;" edge="1" parent="1" source="id_117" target="id_111">
          <mxGeometry relative="1" as="geometry"/>
        </mxCell>
        <mxCell id="id_146" value="HTML з результатами" style="endArrow=classic;html=1;rounded=0;fontSize=9;labelBackgroundColor=#ffffff;strokeWidth=2;strokeColor=#666666;" edge="1" parent="1" source="id_111" target="id_105">
          <mxGeometry relative="1" as="geometry"/>
        </mxCell>
        <mxCell id="id_147" value="Так" style="endArrow=classic;html=1;rounded=0;fontSize=9;labelBackgroundColor=#ffffff;strokeWidth=2;strokeColor=#666666;" edge="1" parent="1" source="id_132" target="id_106">
          <mxGeometry relative="1" as="geometry"/>
        </mxCell>
        <mxCell id="id_148" value="Запит деталей" style="endArrow=classic;html=1;rounded=0;fontSize=9;labelBackgroundColor=#ffffff;strokeWidth=2;strokeColor=#666666;" edge="1" parent="1" source="id_106" target="id_126">
          <mxGeometry relative="1" as="geometry"/>
        </mxCell>
        <mxCell id="id_149" value="Дані товару" style="endArrow=classic;html=1;rounded=0;fontSize=9;labelBackgroundColor=#ffffff;strokeWidth=2;strokeColor=#666666;" edge="1" parent="1" source="id_126" target="id_112">
          <mxGeometry relative="1" as="geometry"/>
        </mxCell>
        <mxCell id="id_150" value="Товар + кількість" style="endArrow=classic;html=1;rounded=0;fontSize=9;labelBackgroundColor=#ffffff;strokeWidth=2;strokeColor=#666666;" edge="1" parent="1" source="id_107" target="id_119">
          <mxGeometry relative="1" as="geometry"/>
        </mxCell>
        <mxCell id="id_151" value="Паралельна обробка" style="endArrow=classic;html=1;rounded=0;fontSize=9;labelBackgroundColor=#ffffff;strokeWidth=2;strokeColor=#666666;" edge="1" parent="1" source="id_119" target="id_135">
          <mxGeometry relative="1" as="geometry"/>
        </mxCell>
        <mxCell id="id_152" value="Оновлення UI" style="endArrow=classic;html=1;rounded=0;fontSize=9;labelBackgroundColor=#ffffff;strokeWidth=2;strokeColor=#666666;" edge="1" parent="1" source="id_135" target="id_113">
          <mxGeometry relative="1" as="geometry"/>
        </mxCell>
        <mxCell id="id_153" value="Перевірка наявності" style="endArrow=classic;html=1;rounded=0;fontSize=9;labelBackgroundColor=#ffffff;strokeWidth=2;strokeColor=#666666;" edge="1" parent="1" source="id_135" target="id_127">
          <mxGeometry relative="1" as="geometry"/>
        </mxCell>
        <mxCell id="id_154" value="Дані замовлення" style="endArrow=classic;html=1;rounded=0;fontSize=9;labelBackgroundColor=#ffffff;strokeWidth=2;strokeColor=#666666;" edge="1" parent="1" source="id_108" target="id_120">
          <mxGeometry relative="1" as="geometry"/>
        </mxCell>
        <mxCell id="id_155" value="Так" style="endArrow=classic;html=1;rounded=0;fontSize=9;labelBackgroundColor=#ffffff;strokeWidth=2;strokeColor=#666666;" edge="1" parent="1" source="id_133" target="id_121">
          <mxGeometry relative="1" as="geometry"/>
        </mxCell>
        <mxCell id="id_156" value="Розрахунок" style="endArrow=classic;html=1;rounded=0;fontSize=9;labelBackgroundColor=#ffffff;strokeWidth=2;strokeColor=#666666;" edge="1" parent="1" source="id_121" target="id_128">
          <mxGeometry relative="1" as="geometry"/>
        </mxCell>
        <mxCell id="id_157" value="Фінальна сума" style="endArrow=classic;html=1;rounded=0;fontSize=9;labelBackgroundColor=#ffffff;strokeWidth=2;strokeColor=#666666;" edge="1" parent="1" source="id_128" target="id_122">
          <mxGeometry relative="1" as="geometry"/>
        </mxCell>
        <mxCell id="id_158" value="Платіжний запит" style="endArrow=classic;html=1;rounded=0;fontSize=9;labelBackgroundColor=#ffffff;strokeWidth=2;strokeColor=#666666;" edge="1" parent="1" source="id_122" target="id_129">
          <mxGeometry relative="1" as="geometry"/>
        </mxCell>
        <mxCell id="id_159" value="Так" style="endArrow=classic;html=1;rounded=0;fontSize=9;labelBackgroundColor=#ffffff;strokeWidth=2;strokeColor=#666666;" edge="1" parent="1" source="id_134" target="id_123">
          <mxGeometry relative="1" as="geometry"/>
        </mxCell>
        <mxCell id="id_160" value="Підтвердження" style="endArrow=classic;html=1;rounded=0;fontSize=9;labelBackgroundColor=#ffffff;strokeWidth=2;strokeColor=#666666;" edge="1" parent="1" source="id_123" target="id_129">
          <mxGeometry relative="1" as="geometry"/>
        </mxCell>
        <mxCell id="id_161" value="Дані збережені" style="endArrow=classic;html=1;rounded=0;fontSize=9;labelBackgroundColor=#ffffff;strokeWidth=2;strokeColor=#666666;" edge="1" parent="1" source="id_129" target="id_130">
          <mxGeometry relative="1" as="geometry"/>
        </mxCell>
        <mxCell id="id_162" value="Email повідомлення" style="endArrow=classic;html=1;rounded=0;fontSize=9;labelBackgroundColor=#ffffff;strokeWidth=2;strokeColor=#666666;" edge="1" parent="1" source="id_130" target="id_136">
          <mxGeometry relative="1" as="geometry"/>
        </mxCell>
        <mxCell id="id_163" value="Процес завершено" style="endArrow=classic;html=1;rounded=0;fontSize=9;labelBackgroundColor=#ffffff;strokeWidth=2;strokeColor=#666666;" edge="1" parent="1" source="id_136" target="id_137">
          <mxGeometry relative="1" as="geometry"/>
        </mxCell>

      </root>
    </mxGraphModel>
  </diagram>
</mxfile>